<svg width="21" height="19" viewBox="0 0 21 19" fill="none" xmlns="http://www.w3.org/2000/svg">
<path fill-rule="evenodd" clip-rule="evenodd" d="M17.5462 1.64559C18.6011 0.388589 20.75 1.09015 20.75 2.69152V15.3471C20.75 16.8123 19.4872 18 17.9295 18H3.57051C2.01279 18 0.75 16.8123 0.75 15.3471V13.222C0.75 12.6947 0.917121 12.1793 1.23002 11.7416L5.01326 6.45033C5.61544 5.6081 6.86595 5.45247 7.6803 6.1184L11.1024 8.91677C11.2129 9.00711 11.3812 8.99226 11.4719 8.88418L17.5462 1.64559ZM19.2115 2.69152C19.2115 2.46275 18.9045 2.36253 18.7539 2.5421L12.6795 9.78069C12.0446 10.5372 10.8663 10.6412 10.093 10.0088L6.6709 7.21041C6.55456 7.11528 6.37591 7.13751 6.28989 7.25783L2.50665 12.5491C2.36443 12.748 2.28846 12.9823 2.28846 13.222V15.3471C2.28846 16.0131 2.86246 16.553 3.57051 16.553H17.9295C18.6375 16.553 19.2115 16.0131 19.2115 15.3471V2.69152Z" fill="#141414" stroke="#141414" stroke-width="0.2"/>
</svg>
