<svg width="20" height="20" viewBox="0 0 20 20" fill="none" xmlns="http://www.w3.org/2000/svg">
<path fill-rule="evenodd" clip-rule="evenodd" d="M8.75005 1.70005C4.99451 1.70005 1.95005 4.74451 1.95005 8.50005C1.95005 12.2556 4.99451 15.3 8.75005 15.3C12.5056 15.3 15.55 12.2556 15.55 8.50005C15.55 4.74451 12.5056 1.70005 8.75005 1.70005ZM0.550049 8.50005C0.550049 3.97131 4.22131 0.300049 8.75005 0.300049C13.2788 0.300049 16.95 3.97131 16.95 8.50005C16.95 10.5124 16.2252 12.3554 15.0223 13.7823L19.745 18.5051C20.0184 18.7784 20.0184 19.2217 19.745 19.495C19.4717 19.7684 19.0284 19.7684 18.7551 19.495L14.0323 14.7723C12.6054 15.9752 10.7624 16.7 8.75005 16.7C4.22131 16.7 0.550049 13.0288 0.550049 8.50005Z" fill="#959595"/>
</svg>
